<svg id="Layer_1" xmlns="http://www.w3.org/2000/svg" xmlns:xlink="http://www.w3.org/1999/xlink" x="0px" y="0px" width="100%" height="100%" viewBox="0 0 1024 192" enable-background="new 0 0 1024 192" xml:space="preserve">
    <style>
    @keyframes stroke {
        to {
            stroke-dashoffset: 0;
        }
    }

    @keyframes fill {
        to {
            fill: #00b9ff;
        }
    }

    svg .svg-elem-1 {
        stroke-dashoffset: 1050.685546875px;
        stroke-dasharray: 1050.685546875px;
        fill: transparent;
        animation: stroke 1s cubic-bezier(0.47, 0, 0.745, 0.715) 0s forwards,
            fill 0.7s cubic-bezier(0.47, 0, 0.745, 0.715) 1.2s forwards;
    }

    svg .svg-elem-2 {
        stroke-dashoffset: 2188.77197265625px;
        stroke-dasharray: 2188.77197265625px;
        fill: transparent;
        animation: stroke 1s cubic-bezier(0.47, 0, 0.745, 0.715) 0.12s forwards,
            fill 0.7s cubic-bezier(0.47, 0, 0.745, 0.715) 1.32s forwards;
    }

    svg .svg-elem-3 {
        stroke-dashoffset: 70.57234954833984px;
        stroke-dasharray: 70.57234954833984px;
        fill: transparent;
        animation: stroke 1s cubic-bezier(0.47, 0, 0.745, 0.715) 0.24s forwards,
            fill 0.7s cubic-bezier(0.47, 0, 0.745, 0.715) 1.44s forwards;
    }

    svg .svg-elem-4 {
        stroke-dashoffset: 2671.390625px;
        stroke-dasharray: 2671.390625px;
        fill: transparent;
        animation: stroke 1s cubic-bezier(0.47, 0, 0.745, 0.715) 0.36s forwards,
            fill 0.7s cubic-bezier(0.47, 0, 0.745, 0.715) 1.56s forwards;
    }
    </style>
    <path d="M169.442993,58.422508 C167.413696,60.433235 165.749329,62.324230 163.424286,63.404049 C162.160797,63.990856 160.830170,64.444939 159.828842,63.065228 C158.841324,61.704544 159.606171,60.543583 160.573868,59.525120 C162.636917,57.353867 164.923355,55.360157 166.755951,53.011047 C172.637207,45.472122 170.659241,38.998703 161.407898,36.391678 C152.414200,33.857269 143.227814,34.667885 134.160110,36.268627 C117.441322,39.220036 101.520012,44.428577 87.442932,54.203114 C74.837135,62.956055 75.374184,68.516533 89.360939,74.961479 C104.035637,81.723396 119.669647,86.154305 134.211548,93.262741 C141.257660,96.707054 148.205597,100.298599 154.153549,105.515129 C166.961273,116.747894 167.713531,130.894180 156.340164,143.608398 C144.075333,157.319214 128.591537,166.352295 112.203918,173.997986 C95.340759,181.865509 77.647087,187.102631 59.091705,188.906158 C47.696560,190.013748 36.414745,188.989349 25.836641,184.147797 C14.934752,179.158051 10.648272,170.154099 13.102869,158.353333 C16.388000,142.559708 27.055861,132.572403 40.020996,124.646515 C52.524380,117.002907 65.917374,111.665642 80.880219,111.384499 C81.544334,111.372009 82.229553,111.145622 82.865921,111.252090 C84.562355,111.535912 87.128952,111.009735 87.159988,113.536232 C87.188522,115.858246 84.762573,116.125465 82.992790,116.180328 C75.923271,116.399498 69.122849,117.787567 62.567234,120.410851 C49.873981,125.490166 39.156658,133.211365 31.676693,144.768860 C22.548176,158.873627 28.233845,171.736923 44.798603,174.713882 C59.515144,177.358688 73.958000,174.943832 88.354851,171.887283 C105.783249,168.187073 122.239426,162.124557 137.258072,152.408981 C143.203979,148.562561 148.471817,144.029831 152.000427,137.764069 C156.621414,129.558624 155.279617,122.401726 147.900726,116.544266 C142.764206,112.466827 136.887680,109.620369 130.799225,107.335197 C117.708412,102.421844 104.508331,97.800240 91.402863,92.925095 C84.992836,90.540611 78.798988,87.663528 73.303505,83.477898 C64.089874,76.460335 62.295322,66.986557 68.420944,57.091335 C73.159485,49.436783 80.344421,44.496750 88.146759,40.650475 C108.555840,30.589525 130.038803,24.575424 152.997269,24.676950 C157.878052,24.698536 162.632889,25.561550 167.265366,26.893028 C176.939697,29.673653 180.465561,36.789913 176.901413,46.255650 C175.252090,50.635971 172.893845,54.675686 169.442993,58.422508 z" fill="#00b9ff" stroke="#00f3ff" class="svg-elem-1" />
    <path d="M384.383911,167.090088 C383.067322,162.487473 384.089996,158.133194 383.442017,153.366791 C375.443756,161.219421 368.204468,169.241776 359.368256,175.530502 C354.530884,178.973236 349.376587,181.489456 343.485413,182.361755 C330.454712,184.291183 322.492279,176.613739 324.030182,163.476135 C325.334930,152.330383 327.882660,141.510468 333.108917,131.459869 C333.632385,130.453156 333.994873,129.362747 334.650330,127.786301 C331.019196,128.010742 328.684052,129.946747 326.397858,131.631073 C315.350372,139.770111 305.689575,149.397079 296.751892,159.773773 C296.101807,160.528519 295.517670,161.400238 294.721100,161.957870 C291.799530,164.003082 288.441040,166.190765 285.115234,163.841537 C281.754852,161.467880 283.866333,157.981522 285.156708,155.230209 C289.965881,144.976120 295.027008,134.840439 299.879669,124.606300 C300.679199,122.920097 302.497253,120.823448 300.787231,119.133774 C298.794708,117.164986 296.686707,119.247551 294.975494,120.300606 C284.158844,126.957062 275.786560,136.194672 268.176636,146.186249 C260.909210,155.728165 253.649292,165.276993 246.503159,174.909653 C242.606735,180.161865 236.817459,181.742371 231.009430,183.178757 C228.142349,183.887817 226.325958,182.817352 227.781342,179.359695 C232.951431,167.076904 236.940109,154.366989 240.922623,141.437439 C237.028076,145.957947 233.109909,150.458344 229.244186,155.003357 C222.408966,163.039688 214.745514,170.203400 206.137283,176.275497 C199.740707,180.787506 192.605591,183.620697 184.601151,182.497971 C175.580856,181.232727 170.689499,174.400406 172.100677,165.381348 C172.976349,159.784637 174.339355,154.287598 176.170609,148.650711 C174.689987,150.200027 173.245392,151.786026 171.717316,153.287033 C170.504257,154.478607 169.068329,155.759232 167.398849,154.284882 C165.882828,152.946060 166.425110,151.167252 167.415848,149.733475 C168.834167,147.680939 170.428741,145.748962 171.971985,143.784317 C175.162338,139.722763 178.253586,135.575912 181.597824,131.644684 C185.586487,126.955887 187.520599,121.340637 189.520065,115.689903 C190.459030,113.036301 191.639420,110.414291 193.091400,108.007866 C195.688644,103.703384 199.935379,102.651344 204.324112,105.021935 C208.606628,107.335159 208.135925,111.006981 206.486053,114.537239 C201.693588,124.791718 196.627991,134.918198 191.785980,145.149994 C188.712799,151.644043 186.076645,158.281326 186.271484,165.690674 C186.509506,174.742264 191.006088,177.432236 198.950882,172.847427 C202.821671,170.613647 206.528671,167.947189 209.881302,164.990662 C223.050659,153.377182 234.955978,140.604813 244.628998,125.864044 C247.656631,121.250206 250.233475,116.480080 251.685776,111.075989 C253.290146,105.106010 261.013245,102.379692 266.177063,105.646500 C269.108734,107.501205 268.147949,109.969017 267.219696,112.273102 C263.797150,120.768387 260.191406,129.189911 256.773346,137.686966 C254.853561,142.459396 253.166840,147.325592 251.103073,152.882004 C253.664764,151.973328 254.650482,150.286407 255.857544,148.910202 C269.054199,133.864685 282.458710,119.040276 298.962860,107.427010 C302.126556,105.200890 305.450958,103.344887 309.209991,102.375175 C315.857605,100.660301 320.110809,104.509575 318.933746,111.327057 C317.637634,118.833946 313.480316,125.235741 310.561462,132.114731 C309.665802,134.225601 308.611176,136.269043 308.211914,138.863861 C312.289490,135.595932 316.298370,132.237534 320.459290,129.079422 C328.467499,123.001244 336.895203,117.678986 346.880768,115.400627 C348.014191,115.142014 349.159790,114.844101 350.311737,114.780342 C352.287781,114.670944 354.472198,114.334801 355.750763,116.367920 C357.025726,118.395317 355.889618,120.211693 354.817963,121.922516 C349.580597,130.283844 345.170898,139.044785 342.076050,148.430023 C340.200378,154.118179 338.207397,159.810593 338.359955,165.915131 C338.573700,174.466293 343.463745,177.290619 350.926788,173.212250 C355.335876,170.802780 359.285431,167.733231 362.996918,164.366989 C374.995270,153.484665 386.207397,141.987823 394.517395,127.842888 C399.798615,118.853424 407.090118,111.500572 415.937469,105.809174 C422.299377,101.716637 429.109497,99.316803 436.747925,100.757393 C443.189056,101.972176 447.400177,108.003380 446.241730,113.907722 C445.905914,115.619446 445.375824,117.264442 443.275269,117.343330 C441.160797,117.422729 441.101013,115.753868 440.905518,114.228119 C440.319183,109.652283 437.357239,108.933876 433.646118,110.118690 C426.390930,112.434967 421.151489,117.649132 416.220612,123.077148 C407.275146,132.924484 400.051208,143.808838 396.888428,156.998962 C396.019226,160.623947 395.790436,164.252182 396.338715,167.902237 C397.436768,175.213120 402.818268,178.762543 410.030640,177.149643 C413.508453,176.371902 416.755249,175.065964 419.458832,172.781372 C430.390991,163.543289 438.316559,152.226654 442.764740,138.552139 C444.089386,134.480026 444.159515,130.423279 443.085388,126.271339 C441.464142,120.004570 444.502625,116.815468 450.721893,118.292480 C461.822205,120.928696 472.905487,119.518967 484.002930,118.370079 C487.441498,118.014099 486.766266,114.986801 487.361115,113.004250 C489.488190,105.915031 491.491119,104.259117 498.218048,104.693497 C503.740662,105.050110 505.373993,107.397652 503.356934,112.588989 C499.136139,123.452141 494.739502,134.246841 490.467438,145.090286 C489.682007,147.083878 489.143860,149.174896 488.267029,151.925079 C490.612518,151.088898 491.504639,149.579117 492.619812,148.328979 C505.712433,133.651917 518.790344,118.960114 534.942810,107.447098 C537.951111,105.302841 541.129211,103.516769 544.696899,102.515678 C552.007019,100.464493 556.208374,104.007202 555.195618,111.537712 C554.567627,116.207703 552.595093,120.469933 550.391113,124.597450 C545.447693,133.855042 540.306274,143.031250 537.619873,153.280411 C536.442139,157.773651 535.043823,162.307938 535.723450,167.029343 C536.858276,174.913742 540.998962,176.955231 547.969543,173.094772 C555.327026,169.020035 561.382629,163.242432 567.493225,157.595566 C573.368774,152.165878 578.644592,146.143692 583.820374,140.041840 C585.128357,138.499924 586.277832,135.693756 588.873047,137.611664 C591.081116,139.243484 589.335266,141.297913 588.235046,142.871994 C579.192627,155.808151 568.367554,167.046371 555.576965,176.299133 C550.066711,180.285263 543.646790,182.132935 536.905701,182.774536 C527.914185,183.630280 520.940491,177.504257 520.684021,168.424042 C520.265930,153.623993 527.128113,141.115662 533.429199,128.436935 C534.907471,125.462433 537.172852,122.637779 535.987610,118.368462 C528.943909,120.256195 524.388000,124.984619 519.707825,129.291000 C507.861328,140.191391 498.916687,153.535278 489.271179,166.275986 C484.152771,173.036865 479.658356,180.449203 470.431824,182.448196 C468.337372,182.901978 466.328217,183.976074 463.771698,182.064636 C470.573639,162.550232 477.427887,142.885742 484.656891,122.146118 C475.488159,125.827240 467.194031,127.234367 458.640869,127.124458 C457.030487,127.103767 455.709351,127.558571 455.394623,129.487000 C452.656158,146.264877 442.489441,158.836075 431.515198,170.796997 C425.686768,177.149521 418.526550,181.651474 409.662323,182.929489 C397.866058,184.630219 387.959198,178.632401 384.383911,167.090088 z" fill="#00b9ff" stroke="#00f3ff" class="svg-elem-2" />
    <path d="M211.224731,89.310059 C207.943924,89.142212 205.463898,88.290344 204.678711,85.211174 C203.956665,82.379738 206.230011,81.045609 208.002838,79.617546 C212.394653,76.079773 216.837494,72.604424 221.299606,69.155426 C222.697296,68.075081 224.004944,66.603745 226.642670,67.368599 C225.798050,75.077080 224.232330,82.459724 218.333923,88.170639 C216.462830,89.982254 213.937256,89.227928 211.224731,89.310059 z" fill="#00b9ff" stroke="#00f3ff" class="svg-elem-3" />
    <path d="M715.228333,180.228088 C737.792725,173.760880 757.880859,163.637909 773.685730,146.486389 C781.799194,137.681671 788.992493,128.032043 796.688843,118.837242 C798.135742,117.108604 797.704651,115.723579 797.050964,113.856674 C796.106384,111.159073 796.884766,108.156334 800.097351,108.415886 C804.876343,108.801994 805.981262,105.686188 807.488098,102.555313 C814.645935,87.683128 822.126648,72.982887 831.360474,59.262169 C839.108215,47.749779 847.444824,36.695026 858.897766,28.537580 C866.335754,23.239843 874.437500,20.262327 883.786377,23.036304 C891.187683,25.232418 894.843994,30.445692 893.479980,38.079632 C891.453064,49.423431 884.192688,57.854881 876.777649,65.976219 C859.623535,84.764488 839.154480,99.799271 819.527588,115.772713 C816.863098,117.941193 814.801392,120.344650 813.450562,123.503662 C809.277283,133.263245 805.111389,143.016815 802.474426,154.486893 C811.445312,144.552139 819.310364,135.086212 828.050842,126.416542 C835.286499,119.239449 842.814575,112.450005 851.360840,106.850922 C854.593628,104.732941 857.991089,102.950851 861.831543,102.301918 C867.479370,101.347603 870.915344,104.427269 870.588928,110.136925 C870.295654,115.265823 868.185425,119.814186 865.612610,124.132767 C859.017883,135.202469 853.148865,146.585129 850.833008,159.413605 C849.919067,164.476089 848.541809,170.428284 853.419250,173.794479 C858.362976,177.206451 862.999878,173.263718 866.891846,170.235947 C881.680481,158.731186 895.438904,146.258072 904.817627,129.621765 C907.831299,124.276016 911.433044,119.208481 915.215027,114.364365 C918.883728,109.665176 927.096497,108.192329 932.612427,110.510628 C936.526855,112.155792 935.469666,114.512924 933.480469,116.732758 C929.926453,120.698814 925.929077,124.284653 922.545898,128.383347 C914.283508,138.393234 907.719177,149.353531 905.905701,162.499435 C904.589783,172.038086 909.377319,175.765396 918.300171,172.086945 C927.853027,168.148788 934.466858,160.471115 941.014709,152.928970 C952.971252,139.156784 962.693604,123.834534 971.498535,107.901390 C976.169373,99.449226 978.203918,98.767296 986.909729,102.250221 C991.342773,104.023743 991.982605,105.717102 989.603882,109.818283 C984.839722,118.032219 979.851685,126.121178 975.270630,134.435074 C969.993530,144.012253 966.473755,154.201462 966.226685,165.281738 C966.151550,168.648239 966.209045,172.310959 969.574402,174.158615 C973.034912,176.058502 976.426880,174.490219 979.425903,172.517944 C991.788269,164.388168 1001.990784,153.867615 1011.849854,142.981186 C1012.967285,141.747269 1013.970520,140.410538 1015.043274,139.135437 C1016.232300,137.722076 1017.482971,135.923401 1019.534607,137.530853 C1021.307434,138.919815 1020.132996,140.663300 1019.223145,141.987091 C1009.024658,156.825760 996.892151,169.758362 981.417053,179.197159 C977.418762,181.635834 972.692017,182.531265 968.022034,182.877899 C958.942871,183.551834 952.263855,177.349854 951.756348,167.826889 C951.552979,164.011139 951.489136,160.171249 952.320129,156.376617 C953.096985,152.829269 953.736450,149.251831 954.650818,144.595749 C949.652771,151.806976 945.570129,158.363312 940.733276,164.387451 C937.473206,168.447708 933.813232,172.013458 929.721619,175.214676 C921.612793,181.558777 913.060120,181.080383 904.365540,176.878708 C896.361938,173.010925 894.098206,166.044800 894.679016,157.726059 C894.736511,156.902390 894.657593,156.067810 894.612610,155.239883 C894.606201,155.121994 894.432800,155.013153 894.152954,154.683960 C886.542786,162.071915 879.490723,170.039108 870.756226,176.205154 C865.121033,180.183304 858.899475,182.289566 852.185242,182.868515 C843.085999,183.653122 836.438110,177.427063 835.794006,167.908005 C835.215332,159.356277 837.437927,151.380173 841.055298,143.768341 C843.986511,137.600418 847.211731,131.572601 850.272522,125.465599 C851.289856,123.435730 852.760254,121.424248 850.923706,118.613808 C843.289856,120.814178 837.836731,126.286949 832.422974,131.524597 C821.958191,141.648758 814.109070,153.951706 805.173950,165.350494 C802.092834,169.281174 799.301025,173.526993 795.741150,176.971710 C791.269043,181.299149 785.629456,183.392151 778.138245,183.112274 C784.649902,164.777771 790.866638,147.273651 797.542908,128.475723 C794.051514,132.464813 791.249023,135.490417 788.640930,138.675217 C770.616638,160.685410 749.009277,177.657135 721.409607,185.960831 C701.222168,192.034485 680.804749,195.390945 660.130676,188.141205 C643.534973,182.321655 633.919983,168.472244 633.641602,150.825409 C633.313965,130.058624 640.646729,111.624863 651.223511,94.384850 C669.109375,65.231255 693.004089,42.583462 725.047241,29.563004 C738.501099,24.096140 752.513489,21.475677 767.032898,25.619379 C781.446411,29.732851 787.550659,41.772827 782.427429,55.944633 C779.638611,63.659130 774.851196,70.057129 769.073975,75.634262 C752.466248,91.666870 733.076965,102.946053 710.650391,108.766991 C708.085388,109.432747 705.425537,109.845810 702.783875,110.066826 C700.726257,110.238976 698.623535,109.687607 697.947754,107.388329 C697.208984,104.874580 698.707947,102.972870 700.789062,102.176262 C703.713623,101.056808 706.839478,100.330139 709.942871,99.832153 C735.197998,95.779579 755.236938,83.904907 768.181030,61.285313 C770.514954,57.206829 772.225098,52.924900 772.882202,48.211258 C774.520691,36.457138 768.057739,29.941891 756.318176,31.591326 C747.786072,32.790108 739.776855,35.658718 732.389648,39.923782 C694.217102,61.962963 665.406006,92.263992 650.173828,134.289230 C647.209534,142.467621 645.165649,150.988831 646.645996,159.753708 C648.972534,173.529160 659.334229,181.850906 674.783752,183.758865 C688.441833,185.445587 701.660522,183.482224 715.228333,180.228088 M834.753174,95.249870 C846.585510,85.495598 857.844116,75.137192 867.834534,63.472698 C874.461914,55.734734 880.523132,47.599930 884.099304,37.922020 C884.912048,35.722610 885.482849,33.230591 883.509644,31.361410 C881.441284,29.402115 879.094421,30.547808 876.994080,31.548971 C870.877014,34.464859 866.088745,39.175529 861.325134,43.791531 C844.909912,59.698025 834.276855,79.487991 824.302979,99.688011 C823.714172,100.880585 823.325012,102.171761 822.411133,104.532486 C827.021057,101.072403 830.605774,98.381859 834.753174,95.249870 z" fill="#00b9ff" stroke="#00f3ff" class="svg-elem-4" />
</svg>
